<svg width="22" height="22" viewBox="0 0 22 22" fill="none" xmlns="http://www.w3.org/2000/svg">
<path d="M11 7.3335C12.8028 7.3335 14.5788 7.69634 16.3281 8.42204C18.0774 9.14773 19.6319 10.2363 20.9917 11.6877C21.175 11.871 21.2667 12.0849 21.2667 12.3293C21.2667 12.5738 21.175 12.7877 20.9917 12.971L18.8833 15.0335C18.7153 15.2016 18.5205 15.2932 18.299 15.3085C18.0774 15.3238 17.875 15.2627 17.6917 15.1252L15.0333 13.1085C14.9111 13.0168 14.8194 12.9099 14.7583 12.7877C14.6972 12.6654 14.6667 12.5279 14.6667 12.3752V9.76266C14.0861 9.57933 13.4903 9.43419 12.8792 9.32725C12.2681 9.2203 11.6417 9.16683 11 9.16683C10.3583 9.16683 9.73195 9.2203 9.12084 9.32725C8.50973 9.43419 7.91389 9.57933 7.33334 9.76266V12.3752C7.33334 12.5279 7.30278 12.6654 7.24167 12.7877C7.18056 12.9099 7.08889 13.0168 6.96667 13.1085L4.30834 15.1252C4.125 15.2627 3.92257 15.3238 3.70105 15.3085C3.47952 15.2932 3.28473 15.2016 3.11667 15.0335L1.00834 12.971C0.825004 12.7877 0.733337 12.5738 0.733337 12.3293C0.733337 12.0849 0.825004 11.871 1.00834 11.6877C2.35278 10.2363 3.90348 9.14773 5.66042 8.42204C7.41737 7.69634 9.19723 7.3335 11 7.3335Z" fill="#1D1B20"/>
</svg>
