<svg width="24" height="19" viewBox="0 0 24 19" fill="none" xmlns="http://www.w3.org/2000/svg">
<path d="M5 16.625C4.45 16.625 3.975 16.4733 3.575 16.1698C3.19167 15.8531 3 15.4771 3 15.0417V3.95833C3 3.52292 3.19167 3.15347 3.575 2.85C3.975 2.53333 4.45 2.375 5 2.375H19C19.55 2.375 20.0167 2.53333 20.4 2.85C20.8 3.15347 21 3.52292 21 3.95833V15.0417C21 15.4771 20.8 15.8531 20.4 16.1698C20.0167 16.4733 19.55 16.625 19 16.625H5ZM5 15.0417H19V12.6667H16C15.5 13.1681 14.9 13.5573 14.2 13.8344C13.5167 14.1115 12.7833 14.25 12 14.25C11.2167 14.25 10.475 14.1115 9.775 13.8344C9.09167 13.5573 8.5 13.1681 8 12.6667H5V15.0417ZM12 12.6667C12.6333 12.6667 13.2083 12.5215 13.725 12.2312C14.2417 11.941 14.6 11.5583 14.8 11.0833H19V3.95833H5V11.0833H9.2C9.4 11.5583 9.75833 11.941 10.275 12.2312C10.7917 12.5215 11.3667 12.6667 12 12.6667ZM5 15.0417H8C8.5 15.0417 9.09167 15.0417 9.775 15.0417C10.475 15.0417 11.2167 15.0417 12 15.0417C12.7833 15.0417 13.5167 15.0417 14.2 15.0417C14.9 15.0417 15.5 15.0417 16 15.0417H19H5Z" fill="#1D1B20"/>
</svg>
