<svg width="24" height="19" viewBox="0 0 24 19" fill="none" xmlns="http://www.w3.org/2000/svg">
<path d="M4 15.8332C3.45 15.8332 2.975 15.6814 2.575 15.378C2.19167 15.0613 2 14.6853 2 14.2498V4.74984C2 4.31442 2.19167 3.94498 2.575 3.6415C2.975 3.32484 3.45 3.1665 4 3.1665H20C20.55 3.1665 21.0167 3.32484 21.4 3.6415C21.8 3.94498 22 4.31442 22 4.74984V14.2498C22 14.6853 21.8 15.0613 21.4 15.378C21.0167 15.6814 20.55 15.8332 20 15.8332H4ZM12 10.2915L20 6.33317V4.74984L12 8.70817L4 4.74984V6.33317L12 10.2915Z" fill="#1D1B20"/>
</svg>
